<?xml version="1.0" encoding="UTF-8" standalone="no"?><!DOCTYPE svg PUBLIC "-//W3C//DTD SVG 1.1//EN" "http://www.w3.org/Graphics/SVG/1.1/DTD/svg11.dtd"><svg width="100%" height="100%" viewBox="0 0 175 150" version="1.1" xmlns="http://www.w3.org/2000/svg" xmlns:xlink="http://www.w3.org/1999/xlink" xml:space="preserve" style="fill-rule:evenodd;clip-rule:evenodd;stroke-linejoin:round;stroke-miterlimit:1.41421;"><rect id="Background" x="0" y="0" width="175" height="150" style="fill-rule:nonzero;"/><g id="Text"><g><path d="M140.74,25.486c0,8.548 -7.276,16.574 -21.823,24.071c-11.761,6.076 -25.017,10.497 -39.773,13.271c7.232,2.253 10.848,6.521 10.848,12.82c0,5.7 -5.26,10.648 -15.779,14.849c-9.388,3.749 -18.878,5.623 -28.47,5.623c-4.126,0 -7.942,-0.896 -11.449,-2.692c-3.505,-1.793 -5.258,-3.554 -5.258,-5.276c0,-2.317 2.015,-4.523 6.043,-6.619c0.723,-0.15 1.084,0.109 1.084,0.776c-2.2,1.554 -3.298,3.257 -3.298,5.106c0,2.148 3.048,3.22 9.144,3.22c8.781,0 18.387,-2.124 28.823,-6.368c10.43,-4.247 15.65,-8.424 15.65,-12.519c0,-1.936 -1.858,-3.612 -5.575,-5.029c-4.132,-1.488 -9.242,-2.233 -15.33,-2.233c-2.686,0 -6.067,0.592 -10.147,1.773c-4.078,1.182 -6.427,1.77 -7.045,1.77c-2.994,0 -4.492,-0.638 -4.492,-1.911c0,-0.827 2.553,-1.915 7.661,-3.263c5.105,-1.348 9.877,-2.025 14.315,-2.025c5.777,0 14.496,-2.372 26.156,-7.118c11.658,-4.743 21.716,-10.106 30.178,-16.082c9.804,-6.798 14.705,-12.626 14.705,-17.484c0,-2.389 -1.965,-4.314 -5.89,-5.772c-3.924,-1.457 -8.522,-2.184 -13.789,-2.184c-6.61,0 -14.822,0.936 -24.636,2.805c1.442,1.423 2.164,3.143 2.164,5.162c0,0.301 -4.587,4.004 -13.757,11.113c-11.959,9.279 -22.239,17.677 -30.844,25.199c-8.608,7.519 -16.621,14.986 -24.042,22.391c-6.391,6.213 -9.636,9.614 -9.739,10.212l0.465,0.225c2.163,-1.8 4.841,-3.825 8.037,-6.077c0.413,0.078 0.773,0.303 1.083,0.68c-2.269,3.018 -4.535,6.036 -6.802,9.053c-4.124,5.278 -6.755,7.92 -7.886,7.92c-1.651,0 -3.145,-0.939 -4.484,-2.812c-1.34,-1.653 -2.009,-3.148 -2.009,-4.5c0,-1.874 3.247,-6.414 9.74,-13.621c5.978,-6.75 12.882,-13.728 20.718,-20.934c17.726,-16.205 34.268,-30.348 49.627,-42.427c-15.759,3.521 -32.289,8.43 -49.591,14.725c-15.863,5.772 -23.792,9.328 -23.792,10.676c0,0.377 0.36,0.565 1.083,0.565c4.529,0 19.405,-5.799 44.628,-17.391c1.442,-0.149 2.263,0.113 2.471,0.791c-2.37,2.335 -10.203,6.333 -23.492,11.985c-13.604,5.88 -22.31,8.821 -26.12,8.821c-1.134,0 -2.217,-0.412 -3.247,-1.24c-1.033,-0.829 -1.544,-1.806 -1.544,-2.935c0,-1.806 5.925,-5.491 17.784,-11.057c12.888,-6.092 26.549,-11.243 40.983,-15.454c17.838,-5.264 33.097,-7.897 45.78,-7.897c20.623,-0.001 30.933,5.773 30.933,17.318Z" style="fill:#44585f;fill-rule:nonzero;"/><path d="M162.514,53.629c-5.365,-3.001 -13.302,-4.503 -23.821,-4.503c-12.683,0 -27.943,2.635 -45.779,7.898c-14.436,4.21 -28.099,9.362 -40.986,15.455c-9.621,4.513 -15.335,7.791 -17.152,9.832c42.414,-20.402 77.983,-24.945 77.983,-24.945l-0.853,0.6c0.612,-0.141 1.233,-0.293 1.841,-0.429c-15.359,12.081 -31.9,26.224 -49.628,42.429c-7.833,7.205 -14.739,14.184 -20.717,20.934c-6.493,7.206 -9.739,11.747 -9.739,13.62c0,1.351 0.668,2.848 2.008,4.5c1.34,1.874 2.833,2.813 4.484,2.813c1.131,0 3.762,-2.642 7.886,-7.921c2.268,-3.018 4.534,-6.036 6.802,-9.053c-0.309,-0.377 -0.67,-0.604 -1.082,-0.68c-3.197,2.252 -5.874,4.28 -8.038,6.076l-0.464,-0.226c0.411,-1.498 8.14,-9.227 23.19,-23.181c2.369,8.169 5.668,14.919 9.895,20.241c5.563,7.27 12.21,10.903 19.944,10.903c3.505,0 6.957,-1.047 10.357,-3.138c2.473,-1.499 4.43,-3.144 5.872,-4.937c-0.514,-0.823 -1.34,-1.084 -2.47,-0.787c-3.609,3.229 -8.146,4.839 -13.606,4.839c-5.257,0 -9.536,-3.842 -12.832,-11.533c-2.061,-4.852 -3.608,-10.638 -4.64,-17.357c1.856,0.366 3.716,0.547 5.573,0.547c12.891,0 26.043,-2.325 39.452,-6.976c12.48,-4.203 22.896,-9.531 31.256,-15.983c8.351,-6.45 12.528,-12.417 12.528,-17.896c0.001,-4.724 -2.421,-8.438 -7.264,-11.142Zm-10.737,24.417c-9.233,6.503 -20.148,12.035 -32.736,16.595c-13.827,5.01 -26.264,7.515 -37.304,7.515c-3.097,0 -5.524,-0.285 -7.275,-0.849l4.527,-3.866c8.549,-7.475 18.848,-15.888 30.901,-25.231c9.166,-7.103 13.75,-10.802 13.75,-11.103c0,-2.016 -0.723,-3.733 -2.166,-5.156c9.815,-1.87 18.024,-2.805 24.637,-2.805c13.013,0 19.521,2.844 19.521,8.523c0,4.415 -4.618,9.873 -13.855,16.377Z" style="fill:#44585f;fill-rule:nonzero;"/></g></g></svg>