<!DOCTYPE svg PUBLIC "-//W3C//DTD SVG 1.1//EN" "http://www.w3.org/Graphics/SVG/1.1/DTD/svg11.dtd">
<!-- Uploaded to: SVG Repo, www.svgrepo.com, Transformed by: SVG Repo Mixer Tools -->
<svg fill="#a2a2a2" height="800px" width="800px" version="1.1" id="Layer_1" xmlns="http://www.w3.org/2000/svg" xmlns:xlink="http://www.w3.org/1999/xlink" viewBox="-143 145 512 512" xml:space="preserve">
<g id="SVGRepo_bgCarrier" stroke-width="0"/>
<g id="SVGRepo_tracerCarrier" stroke-linecap="round" stroke-linejoin="round"/>
<g id="SVGRepo_iconCarrier"> <g> <path d="M-143,145v512h512V145H-143z M339,627h-452V175h452V627z"/> <path d="M184.6,457.4c31.2,0,56.4-25.3,56.4-56.4c0-31.1-25.2-56.4-56.4-56.4c-31.2,0-56.4,25.3-56.4,56.4 C128.2,432.1,153.4,457.4,184.6,457.4z"/> <path d="M41.4,457.4c31.2,0,56.4-25.3,56.4-56.4c0-31.1-25.2-56.4-56.4-56.4S-15,369.9-15,401C-15,432.1,10.3,457.4,41.4,457.4z"/> </g> </g>
</svg>